<svg xmlns="http://www.w3.org/2000/svg" xmlns:xlink="http://www.w3.org/1999/xlink" contentStyleType="text/css" data-diagram-type="ACTIVITY" height="792px" preserveAspectRatio="none" style="width:1440px;height:792px;background:#FFFFFF;" version="1.1" viewBox="0 0 1440 792" width="1440px" zoomAndPan="magnify"><?plantuml 1.2026.7beta1?><defs/><g><rect fill="none" height="20.9531" style="stroke:none;stroke-width:1;" width="1393.3452" x="20" y="17.7451"/><ellipse cx="294.3691" cy="53.6982" fill="#222222" rx="10" ry="10" style="stroke:#222222;stroke-width:1;"/><rect fill="#F1F1F1" height="33.9688" rx="12.5" ry="12.5" style="stroke:#181818;stroke-width:0.5;" width="177.002" x="205.8682" y="83.6982"/><text fill="#000000" font-family="Helvetica" font-size="12" lengthAdjust="spacing" textLength="157.002" x="215.8682" y="104.8369">Acceder a curso adquirido</text><rect fill="#F1F1F1" height="33.9688" rx="12.5" ry="12.5" style="stroke:#181818;stroke-width:0.5;" width="206.6797" x="191.0293" y="137.667"/><text fill="#000000" font-family="Helvetica" font-size="12" lengthAdjust="spacing" textLength="186.6797" x="201.0293" y="158.8057">Solicitar reproducci&#243;n de video</text><rect fill="#F1F1F1" height="33.9688" rx="12.5" ry="12.5" style="stroke:#181818;stroke-width:0.5;" width="267.2539" x="160.7422" y="245.6045"/><text fill="#000000" font-family="Helvetica" font-size="12" lengthAdjust="spacing" textLength="247.2539" x="170.7422" y="266.7432">Visualizar clase y recursos (PDFs/C&#243;digo)</text><polygon fill="#F1F1F1" points="242.5273,299.5732,346.2109,299.5732,358.2109,311.5732,346.2109,323.5732,242.5273,323.5732,230.5273,311.5732,242.5273,299.5732" style="stroke:#181818;stroke-width:0.5;stroke-linejoin:miter;stroke-miterlimit:10;"/><text fill="#000000" font-family="Helvetica" font-size="11" lengthAdjust="spacing" textLength="103.6836" x="242.5273" y="315.3813">&#191;Es fin de m&#243;dulo?</text><text fill="#000000" font-family="Helvetica" font-size="11" lengthAdjust="spacing" textLength="10.0386" x="220.4888" y="308.979">S&#237;</text><text fill="#000000" font-family="Helvetica" font-size="11" lengthAdjust="spacing" textLength="14.9585" x="358.2109" y="308.979">No</text><rect fill="#F1F1F1" height="33.9688" rx="12.5" ry="12.5" style="stroke:#181818;stroke-width:0.5;" width="175.0332" x="26" y="343.5732"/><text fill="#000000" font-family="Helvetica" font-size="12" lengthAdjust="spacing" textLength="155.0332" x="36" y="364.7119">Iniciar Quiz de Evaluaci&#243;n</text><polygon fill="#F1F1F1" points="294.3691,705.8506,306.3691,717.8506,294.3691,729.8506,282.3691,717.8506,294.3691,705.8506" style="stroke:#181818;stroke-width:0.5;stroke-linejoin:miter;stroke-miterlimit:10;"/><ellipse cx="294.3691" cy="760.8506" fill="none" rx="11" ry="11" style="stroke:#222222;stroke-width:1;"/><ellipse cx="294.3691" cy="760.8506" fill="#222222" rx="6" ry="6" style="stroke:#222222;stroke-width:1;"/><line style="stroke:#000000;stroke-width:1.5;" x1="20" x2="20" y1="17.7451" y2="771.8506"/><rect fill="#F1F1F1" height="33.9688" rx="12.5" ry="12.5" style="stroke:#181818;stroke-width:0.5;" width="200.9844" x="464.7783" y="191.6357"/><text fill="#000000" font-family="Helvetica" font-size="12" lengthAdjust="spacing" textLength="180.9844" x="474.7783" y="212.7744">Servir video interactivo en HD</text><line style="stroke:#000000;stroke-width:1.5;" x1="431.9961" x2="431.9961" y1="17.7451" y2="771.8506"/><rect fill="#F1F1F1" height="33.9688" rx="12.5" ry="12.5" style="stroke:#181818;stroke-width:0.5;" width="138.3945" x="891.9209" y="397.542"/><text fill="#000000" font-family="Helvetica" font-size="12" lengthAdjust="spacing" textLength="118.3945" x="901.9209" y="418.6807">Calificar respuestas</text><polygon fill="#F1F1F1" points="928.6821,451.5107,993.5542,451.5107,1005.5542,463.5107,993.5542,475.5107,928.6821,475.5107,916.6821,463.5107,928.6821,451.5107" style="stroke:#181818;stroke-width:0.5;stroke-linejoin:miter;stroke-miterlimit:10;"/><text fill="#000000" font-family="Helvetica" font-size="11" lengthAdjust="spacing" textLength="64.8721" x="928.6821" y="467.3188">&#191;Aprobado?</text><text fill="#000000" font-family="Helvetica" font-size="11" lengthAdjust="spacing" textLength="10.0386" x="906.6436" y="460.9165">S&#237;</text><text fill="#000000" font-family="Helvetica" font-size="11" lengthAdjust="spacing" textLength="14.9585" x="1005.5542" y="460.9165">No</text><rect fill="#F1F1F1" height="33.9688" rx="12.5" ry="12.5" style="stroke:#181818;stroke-width:0.5;" width="177.0488" x="740.6895" y="485.5107"/><text fill="#000000" font-family="Helvetica" font-size="12" lengthAdjust="spacing" textLength="157.0488" x="750.6895" y="506.6494">Actualizar progreso en BD</text><rect fill="#F1F1F1" height="33.9688" rx="12.5" ry="12.5" style="stroke:#181818;stroke-width:0.5;" width="253.3379" x="702.5449" y="587.8818"/><text fill="#000000" font-family="Helvetica" font-size="12" lengthAdjust="spacing" textLength="233.3379" x="712.5449" y="609.0205">Generar Certificado Digital Autom&#225;tico</text><polygon fill="#F1F1F1" points="761.8469,539.4795,896.5808,539.4795,908.5808,551.4795,896.5808,563.4795,761.8469,563.4795,749.8469,551.4795,761.8469,539.4795" style="stroke:#181818;stroke-width:0.5;stroke-linejoin:miter;stroke-miterlimit:10;"/><text fill="#000000" font-family="Helvetica" font-size="11" lengthAdjust="spacing" textLength="10.0386" x="833.2139" y="573.6899">S&#237;</text><text fill="#000000" font-family="Helvetica" font-size="11" lengthAdjust="spacing" textLength="134.7339" x="761.8469" y="555.2876">&#191;Curso 100% finalizado?</text><text fill="#000000" font-family="Helvetica" font-size="11" lengthAdjust="spacing" textLength="14.9585" x="908.5808" y="548.8853">No</text><polygon fill="#F1F1F1" points="829.2139,641.8506,841.2139,653.8506,829.2139,665.8506,817.2139,653.8506,829.2139,641.8506" style="stroke:#181818;stroke-width:0.5;stroke-linejoin:miter;stroke-miterlimit:10;"/><rect fill="#F1F1F1" height="33.9688" rx="12.5" ry="12.5" style="stroke:#181818;stroke-width:0.5;" width="190.2793" x="997.8828" y="485.5107"/><text fill="#000000" font-family="Helvetica" font-size="12" lengthAdjust="spacing" textLength="170.2793" x="1007.8828" y="506.6494">Sugerir repaso de contenido</text><polygon fill="#F1F1F1" points="961.1182,671.8506,973.1182,683.8506,961.1182,695.8506,949.1182,683.8506,961.1182,671.8506" style="stroke:#181818;stroke-width:0.5;stroke-linejoin:miter;stroke-miterlimit:10;"/><rect fill="#F1F1F1" height="33.9688" rx="12.5" ry="12.5" style="stroke:#181818;stroke-width:0.5;" width="209.3223" x="1198.1621" y="343.5732"/><text fill="#000000" font-family="Helvetica" font-size="12" lengthAdjust="spacing" textLength="189.3223" x="1208.1621" y="364.7119">Guardar punto de reproducci&#243;n</text><line style="stroke:#000000;stroke-width:1.5;" x1="696.5449" x2="696.5449" y1="17.7451" y2="771.8506"/><line style="stroke:#000000;stroke-width:1.5;" x1="1411.4844" x2="1411.4844" y1="17.7451" y2="771.8506"/><line style="stroke:#181818;stroke-width:1;" x1="294.3691" x2="294.3691" y1="63.6982" y2="83.6982"/><polygon fill="#181818" points="290.3691,73.6982,294.3691,83.6982,298.3691,73.6982,294.3691,77.6982" style="stroke:#181818;stroke-width:1;stroke-linejoin:miter;stroke-miterlimit:10;"/><line style="stroke:#181818;stroke-width:1;" x1="294.3691" x2="294.3691" y1="117.667" y2="137.667"/><polygon fill="#181818" points="290.3691,127.667,294.3691,137.667,298.3691,127.667,294.3691,131.667" style="stroke:#181818;stroke-width:1;stroke-linejoin:miter;stroke-miterlimit:10;"/><line style="stroke:#181818;stroke-width:1;" x1="230.5273" x2="113.5166" y1="311.5732" y2="311.5732"/><line style="stroke:#181818;stroke-width:1;" x1="113.5166" x2="113.5166" y1="311.5732" y2="343.5732"/><polygon fill="#181818" points="109.5166,333.5732,113.5166,343.5732,117.5166,333.5732,113.5166,337.5732" style="stroke:#181818;stroke-width:1;stroke-linejoin:miter;stroke-miterlimit:10;"/><line style="stroke:#181818;stroke-width:1;" x1="294.3691" x2="294.3691" y1="279.5732" y2="299.5732"/><polygon fill="#181818" points="290.3691,289.5732,294.3691,299.5732,298.3691,289.5732,294.3691,293.5732" style="stroke:#181818;stroke-width:1;stroke-linejoin:miter;stroke-miterlimit:10;"/><line style="stroke:#181818;stroke-width:1;" x1="294.3691" x2="294.3691" y1="729.8506" y2="749.8506"/><polygon fill="#181818" points="290.3691,739.8506,294.3691,749.8506,298.3691,739.8506,294.3691,743.8506" style="stroke:#181818;stroke-width:1;stroke-linejoin:miter;stroke-miterlimit:10;"/><line style="stroke:#181818;stroke-width:1;" x1="829.2139" x2="829.2139" y1="563.4795" y2="587.8818"/><polygon fill="#181818" points="825.2139,577.8818,829.2139,587.8818,833.2139,577.8818,829.2139,581.8818" style="stroke:#181818;stroke-width:1;stroke-linejoin:miter;stroke-miterlimit:10;"/><line style="stroke:#181818;stroke-width:1;" x1="908.5808" x2="965.8828" y1="551.4795" y2="551.4795"/><polygon fill="#181818" points="961.8828,594.8662,965.8828,604.8662,969.8828,594.8662,965.8828,598.8662" style="stroke:#181818;stroke-width:1;stroke-linejoin:miter;stroke-miterlimit:10;"/><line style="stroke:#181818;stroke-width:1;" x1="965.8828" x2="965.8828" y1="551.4795" y2="653.8506"/><line style="stroke:#181818;stroke-width:1;" x1="965.8828" x2="841.2139" y1="653.8506" y2="653.8506"/><polygon fill="#181818" points="851.2139,649.8506,841.2139,653.8506,851.2139,657.8506,847.2139,653.8506" style="stroke:#181818;stroke-width:1;stroke-linejoin:miter;stroke-miterlimit:10;"/><line style="stroke:#181818;stroke-width:1;" x1="829.2139" x2="829.2139" y1="621.8506" y2="641.8506"/><polygon fill="#181818" points="825.2139,631.8506,829.2139,641.8506,833.2139,631.8506,829.2139,635.8506" style="stroke:#181818;stroke-width:1;stroke-linejoin:miter;stroke-miterlimit:10;"/><line style="stroke:#181818;stroke-width:1;" x1="829.2139" x2="829.2139" y1="519.4795" y2="539.4795"/><polygon fill="#181818" points="825.2139,529.4795,829.2139,539.4795,833.2139,529.4795,829.2139,533.4795" style="stroke:#181818;stroke-width:1;stroke-linejoin:miter;stroke-miterlimit:10;"/><line style="stroke:#181818;stroke-width:1;" x1="916.6821" x2="829.2139" y1="463.5107" y2="463.5107"/><line style="stroke:#181818;stroke-width:1;" x1="829.2139" x2="829.2139" y1="463.5107" y2="485.5107"/><polygon fill="#181818" points="825.2139,475.5107,829.2139,485.5107,833.2139,475.5107,829.2139,479.5107" style="stroke:#181818;stroke-width:1;stroke-linejoin:miter;stroke-miterlimit:10;"/><line style="stroke:#181818;stroke-width:1;" x1="1005.5542" x2="1093.0225" y1="463.5107" y2="463.5107"/><line style="stroke:#181818;stroke-width:1;" x1="1093.0225" x2="1093.0225" y1="463.5107" y2="485.5107"/><polygon fill="#181818" points="1089.0225,475.5107,1093.0225,485.5107,1097.0225,475.5107,1093.0225,479.5107" style="stroke:#181818;stroke-width:1;stroke-linejoin:miter;stroke-miterlimit:10;"/><line style="stroke:#181818;stroke-width:1;" x1="829.2139" x2="829.2139" y1="665.8506" y2="683.8506"/><line style="stroke:#181818;stroke-width:1;" x1="829.2139" x2="949.1182" y1="683.8506" y2="683.8506"/><polygon fill="#181818" points="939.1182,679.8506,949.1182,683.8506,939.1182,687.8506,943.1182,683.8506" style="stroke:#181818;stroke-width:1;stroke-linejoin:miter;stroke-miterlimit:10;"/><line style="stroke:#181818;stroke-width:1;" x1="1093.0225" x2="1093.0225" y1="519.4795" y2="683.8506"/><line style="stroke:#181818;stroke-width:1;" x1="1093.0225" x2="973.1182" y1="683.8506" y2="683.8506"/><polygon fill="#181818" points="983.1182,679.8506,973.1182,683.8506,983.1182,687.8506,979.1182,683.8506" style="stroke:#181818;stroke-width:1;stroke-linejoin:miter;stroke-miterlimit:10;"/><line style="stroke:#181818;stroke-width:1;" x1="961.1182" x2="961.1182" y1="431.5107" y2="451.5107"/><polygon fill="#181818" points="957.1182,441.5107,961.1182,451.5107,965.1182,441.5107,961.1182,445.5107" style="stroke:#181818;stroke-width:1;stroke-linejoin:miter;stroke-miterlimit:10;"/><line style="stroke:#181818;stroke-width:1;" x1="294.3691" x2="294.3691" y1="171.6357" y2="176.6357"/><line style="stroke:#181818;stroke-width:1;" x1="294.3691" x2="565.2705" y1="176.6357" y2="176.6357"/><line style="stroke:#181818;stroke-width:1;" x1="565.2705" x2="565.2705" y1="176.6357" y2="191.6357"/><polygon fill="#181818" points="561.2705,181.6357,565.2705,191.6357,569.2705,181.6357,565.2705,185.6357" style="stroke:#181818;stroke-width:1;stroke-linejoin:miter;stroke-miterlimit:10;"/><line style="stroke:#181818;stroke-width:1;" x1="565.2705" x2="565.2705" y1="225.6045" y2="230.6045"/><line style="stroke:#181818;stroke-width:1;" x1="565.2705" x2="294.3691" y1="230.6045" y2="230.6045"/><line style="stroke:#181818;stroke-width:1;" x1="294.3691" x2="294.3691" y1="230.6045" y2="245.6045"/><polygon fill="#181818" points="290.3691,235.6045,294.3691,245.6045,298.3691,235.6045,294.3691,239.6045" style="stroke:#181818;stroke-width:1;stroke-linejoin:miter;stroke-miterlimit:10;"/><line style="stroke:#181818;stroke-width:1;" x1="113.5166" x2="113.5166" y1="377.542" y2="382.542"/><line style="stroke:#181818;stroke-width:1;" x1="113.5166" x2="961.1182" y1="382.542" y2="382.542"/><line style="stroke:#181818;stroke-width:1;" x1="961.1182" x2="961.1182" y1="382.542" y2="397.542"/><polygon fill="#181818" points="957.1182,387.542,961.1182,397.542,965.1182,387.542,961.1182,391.542" style="stroke:#181818;stroke-width:1;stroke-linejoin:miter;stroke-miterlimit:10;"/><line style="stroke:#181818;stroke-width:1;" x1="358.2109" x2="1302.8232" y1="311.5732" y2="311.5732"/><line style="stroke:#181818;stroke-width:1;" x1="1302.8232" x2="1302.8232" y1="311.5732" y2="343.5732"/><polygon fill="#181818" points="1298.8232,333.5732,1302.8232,343.5732,1306.8232,333.5732,1302.8232,337.5732" style="stroke:#181818;stroke-width:1;stroke-linejoin:miter;stroke-miterlimit:10;"/><line style="stroke:#181818;stroke-width:1;" x1="961.1182" x2="961.1182" y1="695.8506" y2="699.8506"/><line style="stroke:#181818;stroke-width:1;" x1="961.1182" x2="264.3691" y1="699.8506" y2="699.8506"/><line style="stroke:#181818;stroke-width:1;" x1="264.3691" x2="264.3691" y1="699.8506" y2="717.8506"/><line style="stroke:#181818;stroke-width:1;" x1="264.3691" x2="282.3691" y1="717.8506" y2="717.8506"/><polygon fill="#181818" points="272.3691,713.8506,282.3691,717.8506,272.3691,721.8506,276.3691,717.8506" style="stroke:#181818;stroke-width:1;stroke-linejoin:miter;stroke-miterlimit:10;"/><line style="stroke:#181818;stroke-width:1;" x1="1302.8232" x2="1302.8232" y1="377.542" y2="717.8506"/><line style="stroke:#181818;stroke-width:1;" x1="1302.8232" x2="306.3691" y1="717.8506" y2="717.8506"/><polygon fill="#181818" points="316.3691,713.8506,306.3691,717.8506,316.3691,721.8506,312.3691,717.8506" style="stroke:#181818;stroke-width:1;stroke-linejoin:miter;stroke-miterlimit:10;"/><text fill="#000000" font-family="Helvetica" font-size="18" lengthAdjust="spacing" textLength="96.2139" x="177.8911" y="34.4531">Estudiante</text><text fill="#000000" font-family="Helvetica" font-size="18" lengthAdjust="spacing" textLength="254.5488" x="436.9961" y="34.4531">Sistema (Cloud / Streaming)</text><text fill="#000000" font-family="Helvetica" font-size="18" lengthAdjust="spacing" textLength="169.875" x="969.0771" y="34.4531">Sistema (Backend)</text><?plantuml-src TLBBRjim4BppAnOe2iYdf5Vf43YodVGIj12G-uPSAOjGfCk7YWR-cNn0Jlc00lMFTKKXRMAqEeepipEp6n_OxJ7W27Ue7uRWipEjjpx0XrtvLFo3YFTe_7Ts0_He8xrvCTHZjcddNRh1aU2Qx4I9DQh3DgPi65sYWue9GrBrMcio5011vn0zeFcMER3nZQexRrcpu23GFdYJjURZYvC9CB4XWHmwZeb6XAgrFXiuWou5mb5yhGuYG67Yi821PMn0dNZoG0wkDyrxG_KjnuoM7sMUjXW9ViZSuYf2zMMpYsVjySNmu5UDuXwgNp-t4NekVaPvoTPVh23TYtZL7PzN2g3-x2I127xD_3ZZjXFQZ2L68-z__LzAu-ICk1PMApPwQMmE7lUPfAiumvUfQ-dYJje_7IR4jKwl4GGq2BjalTmqvNtXjwNeJ-Vd7sVt1VulCP6x8YUL1MWff6B8UDZm82kniCx9ZySdMQnVn4dE0AeRlx0b2_Vgz6_TvO42buMYc916jDm9kRBmLzPRpdyQkieOp9mokrHatbr8enQXauFp-zy0?></g></svg>